<?xml version="1.0" encoding="utf-8"?>
<!-- Generator: Adobe Illustrator 19.0.0, SVG Export Plug-In . SVG Version: 6.00 Build 0)  -->
<svg version="1.1" id="Layer_1" xmlns="http://www.w3.org/2000/svg" xmlns:xlink="http://www.w3.org/1999/xlink" x="0px" y="0px"
	 viewBox="0 0 500 500" style="enable-background:new 0 0 500 500;" xml:space="preserve">
<style type="text/css">
	.st1{fill:#231F20;}
	.st2{fill:#682C27;}
	.st3{clip-path:url(#XMLID_65_);fill:#208DDB;}
	.st4{clip-path:url(#XMLID_66_);fill:#208DDB;}
	.st5{clip-path:url(#XMLID_70_);fill:#208DDB;}
	.st6{clip-path:url(#XMLID_71_);fill:#208DDB;}
	.st7{clip-path:url(#XMLID_72_);fill:#208DDB;}
	.st8{clip-path:url(#XMLID_73_);fill:#208DDB;}
	.st9{clip-path:url(#XMLID_74_);fill:#208DDB;}
</style>
<g id="XMLID_1_">
	<path id="XMLID_14_" class="st1" d="M162.2,395.7c0-7.1,1.9-12.5,5.6-16.4c3.8-3.9,9.1-5.8,15.9-5.8c6.8,0,12,1.9,15.8,5.8
		c3.7,3.9,5.6,9.3,5.6,16.4c0,7.1-1.9,12.5-5.6,16.4c-3.7,3.9-9,5.8-15.8,5.8c-6.8,0-12.1-1.9-15.9-5.8
		C164,408.2,162.2,402.7,162.2,395.7 M178.4,395.4c0,4.4,0.4,7.5,1.2,9.1c0.8,1.6,2.2,2.4,4.1,2.4c1.9,0,3.3-0.8,4.1-2.4
		c0.8-1.6,1.2-4.7,1.2-9.1c0-4.5-0.4-7.5-1.2-9.2c-0.8-1.6-2.1-2.4-4.1-2.4c-2,0-3.3,0.8-4.1,2.5C178.8,387.9,178.4,391,178.4,395.4
		z M209.9,417v-42.7h16l8.8,22.5v-22.5h14.5V417h-15.8l-8.9-21.4V417H209.9z M286.4,416.4c-1.6,0.5-3.1,0.9-4.6,1.1
		c-1.5,0.2-2.9,0.4-4.4,0.4c-2.9,0-5.6-0.4-8.3-1.3c-2.6-0.9-5.1-2.1-7.3-3.8c-2.6-2-4.6-4.5-5.8-7.3c-1.3-2.9-1.9-6.2-1.9-10.1
		c0-6.5,2.1-11.7,6.4-15.8c4.3-4,9.8-6.1,16.4-6.1c1.7,0,3.3,0.1,4.9,0.3c1.6,0.2,3.1,0.5,4.7,0.9V385c-1-0.4-2-0.7-3-0.9
		c-1-0.2-1.9-0.3-2.9-0.3c-3.2,0-5.6,1-7.3,3c-1.6,2-2.5,4.9-2.5,8.8c0,3.7,0.8,6.5,2.5,8.5c1.6,2,4,3,6.9,3c1.1,0,2.2-0.1,3.2-0.4
		c1-0.2,2-0.6,3-1L286.4,416.4L286.4,416.4z M289.4,395.7c0-7.1,1.9-12.5,5.6-16.4c3.8-3.9,9.1-5.8,15.9-5.8
		c6.8,0,12.1,1.9,15.8,5.8c3.7,3.9,5.6,9.3,5.6,16.4c0,7.1-1.9,12.5-5.6,16.4c-3.7,3.9-9,5.8-15.8,5.8c-6.8,0-12.1-1.9-15.9-5.8
		C291.2,408.2,289.4,402.7,289.4,395.7z M305.6,395.4c0,4.4,0.4,7.5,1.2,9.1c0.8,1.6,2.2,2.4,4.1,2.4c1.9,0,3.3-0.8,4.1-2.4
		c0.8-1.6,1.2-4.7,1.2-9.1c0-4.5-0.4-7.5-1.2-9.2c-0.8-1.6-2.1-2.4-4.1-2.4c-2,0-3.3,0.8-4.1,2.5C306,387.9,305.6,391,305.6,395.4z
		 M337,417v-42.7h18.4c6.2,0,11.2,1.2,14.8,3.5c3.6,2.4,5.4,5.6,5.4,9.6c0,2.5-0.8,4.6-2.4,6.4c-1.6,1.8-4,3.2-7.3,4.2l11.4,18.9
		h-17l-7.2-16.5V417L337,417L337,417z M353.1,383.2v10.2c2.2-0.1,3.8-0.5,4.8-1.3c1-0.8,1.5-2.1,1.5-3.8c0-1.7-0.5-3-1.4-3.8
		c-0.9-0.9-2.3-1.3-4.2-1.3L353.1,383.2L353.1,383.2z M159.2,416.4c-1.6,0.5-3.1,0.9-4.6,1.1c-1.5,0.2-3,0.4-4.4,0.4
		c-2.9,0-5.6-0.4-8.3-1.3c-2.6-0.9-5.1-2.1-7.3-3.8c-2.6-2-4.6-4.5-5.9-7.3c-1.3-2.9-1.9-6.2-1.9-10.1c0-6.5,2.1-11.7,6.4-15.8
		c4.3-4,9.8-6.1,16.4-6.1c1.7,0,3.3,0.1,4.9,0.3c1.6,0.2,3.1,0.5,4.7,0.9V385c-1-0.4-2-0.7-3-0.9c-1-0.2-2-0.3-2.9-0.3
		c-3.2,0-5.6,1-7.3,3c-1.7,2-2.5,4.9-2.5,8.8c0,3.7,0.8,6.5,2.5,8.5c1.6,2,4,3,6.9,3c1.1,0,2.2-0.1,3.2-0.4c1-0.2,2-0.6,3-1
		L159.2,416.4L159.2,416.4z"/>
	<path id="XMLID_21_" class="st1" d="M155.2,338.9v-2.1c-1.6-0.7-3.1-1.3-4.5-1.7l-2.1-0.4h-2.1c-4.5,0-6.7,2-6.7,6.1
		c0,1.8,1.3,2.6,3.9,2.6c1.9,0,3.9-0.4,6-1.3C151.6,341.5,153.5,340.4,155.2,338.9z M210.1,301.6c-4,6-9.5,9-16.7,9
		c-7.4,0-13.2-3.9-17.5-11.8l2.9-2.7c4,5.7,8.1,8.5,12.3,8.5c3.6,0,7.9-2.6,13.1-7.9L210.1,301.6z M281.7,338.9v-2.1
		c-1.6-0.7-3.1-1.3-4.5-1.7l-2.1-0.4H273c-4.5,0-6.7,2-6.7,6.1c0,1.8,1.3,2.6,3.9,2.6c1.9,0,3.9-0.4,6-1.3
		C278.1,341.5,279.9,340.4,281.7,338.9z M336.6,301.6c-4,6-9.5,9-16.7,9c-7.4,0-13.2-3.9-17.5-11.8l2.9-2.7c4,5.7,8.1,8.5,12.3,8.5
		c3.5,0,7.9-2.6,13.1-7.9L336.6,301.6z M375.3,321.4h-13v15c0,2.7-0.4,4.8-1.2,6.3c-0.8,1.4-2.4,2.7-4.8,3.7l14.4,12.8l-3.7,2.7
		l-22.6-20.6c-1.3-1.2-2-2.5-2-3.9c0-2.6,1.5-3.9,4.4-3.9c2.8,0,4.8,0.6,6,1.8v-13.9h-23.6v39.7l-9.3-5v-34.7h-7.3l-0.5-0.7v0.7
		h-20.5l-0.2,12.7c2.2-1.3,4.4-2,6.5-2c3.1,0,5.9,1.2,8.4,3.6c2.6,2.3,3.9,5,3.9,8.2c0,4.5-1.6,8.1-4.6,10.9l-7.1-3.1
		c0.5-0.6,1-1.3,1.6-2.1c1-1.3,1.7-2.3,2.2-3l1.3-2.7c0.5-1,0.7-2,0.8-3c0-2.3-1.1-3.4-3.3-3.4c-2.9,0-6.2,1.5-9.7,4.5V361l-9.7-2.9
		v-13.4c-3.4,2.2-6.9,3.2-10.6,3.2c-2.7,0-5.4-0.8-8-2.4c-2.6-1.6-3.9-3.9-3.9-6.8c0-2.8,1.3-5.3,4-7.3c2.3-1.7,5.1-2.5,8.3-2.5
		c4.3,0,7.8,1.6,10.6,4.9l0.1-12.5h-31.4v39.7l-9.3-5v-34.7h-38.8v39.7l-9.4-5v-34.7h-7.3l-0.5-0.7v0.7H165l-0.2,12.7
		c2.2-1.3,4.4-2,6.5-2c3.1,0,5.9,1.2,8.4,3.6c2.6,2.3,3.9,5,3.9,8.2c0,4.5-1.5,8.1-4.6,10.9l-7.1-3.1c0.5-0.6,1-1.3,1.6-2.1
		c1-1.3,1.7-2.3,2.2-3l1.3-2.7c0.5-1,0.7-2,0.9-3c0-2.3-1.1-3.4-3.3-3.4c-2.9,0-6.2,1.5-9.7,4.5V361l-9.7-2.9v-13.4
		c-3.4,2.2-6.9,3.2-10.6,3.2c-2.7,0-5.4-0.8-8-2.4c-2.6-1.6-3.9-3.9-3.9-6.8c0-2.8,1.3-5.3,4-7.3c2.3-1.7,5.1-2.5,8.3-2.5
		c4.3,0,7.8,1.6,10.6,4.9l0.1-12.5h-23.5l-4.7-6.9h243.2L375.3,321.4z M241.4,341.3h-15.6v3.9c0,1.8-1,2.6-2.9,2.6
		c-0.6,0-1.2-0.2-1.9-0.7l-8.3-7.8c-0.7-0.6-1.1-1.4-1.1-2.2c0-2,1.6-2.9,4.7-2.9h25.1V341.3z"/>
	<path id="XMLID_28_" class="st1" d="M155.2,338.9h0.2v-2.2l-0.1-0.1c-1.6-0.7-3.1-1.3-4.5-1.7l0,0l-2.1-0.4h-2.1
		c-2.3,0-4,0.5-5.2,1.6c-1.2,1.1-1.7,2.7-1.7,4.7c0,0.9,0.3,1.7,1,2.1c0.7,0.5,1.7,0.7,3,0.7c1.9,0,4-0.4,6.1-1.3l-0.1-0.2l0.1,0.2
		c1.9-0.7,3.8-1.8,5.5-3.3l0.1-0.1v-0.1H155.2l-0.1-0.1c-1.7,1.5-3.5,2.6-5.4,3.3l0,0l0,0c-2.1,0.8-4.1,1.3-6,1.3
		c-1.3,0-2.2-0.2-2.8-0.6c-0.6-0.4-0.9-1-0.9-1.8c0-2,0.5-3.5,1.6-4.4c1.1-1,2.7-1.5,4.9-1.5h2.1l2.1,0.4l0-0.2l0,0.2
		c1.4,0.4,2.9,0.9,4.5,1.6l0.1-0.2H155v2.1H155.2l-0.1-0.1L155.2,338.9z M210.1,301.6l-0.2-0.1c-3.9,5.9-9.4,8.9-16.5,8.9
		c-7.3,0-13-3.9-17.3-11.7l-0.2,0.1l0.1,0.1l2.9-2.7l-0.1-0.1l-0.2,0.1c4,5.7,8.2,8.6,12.4,8.6c3.7,0,8.1-2.7,13.3-7.9l-0.1-0.1
		l-0.1,0.1l5.9,4.9L210.1,301.6l-0.2-0.1L210.1,301.6l0.1-0.1l-6-5.1l-0.1,0.1c-5.2,5.2-9.5,7.8-13,7.8c-4.1,0-8.1-2.8-12.1-8.4
		l-0.1-0.2l-3.1,3l0.1,0.1c4.3,7.9,10.2,11.9,17.6,11.9c7.2,0,12.9-3,16.8-9.1l0.1-0.1l-0.1-0.1L210.1,301.6z M281.7,338.9h0.2v-2.2
		l-0.1-0.1c-1.6-0.7-3.1-1.3-4.5-1.7l0,0l-2.1-0.4H273c-2.3,0-4,0.5-5.2,1.6c-1.2,1.1-1.7,2.7-1.7,4.7c0,0.9,0.4,1.7,1,2.1
		c0.7,0.5,1.7,0.7,3,0.7c1.9,0,4-0.4,6.1-1.3l-0.1-0.2l0.1,0.2c1.9-0.7,3.8-1.8,5.5-3.3l0.1-0.1v-0.1H281.7l-0.1-0.1
		c-1.7,1.5-3.5,2.6-5.4,3.3l0,0l0,0c-2.1,0.8-4.1,1.3-6,1.3c-1.3,0-2.2-0.2-2.8-0.6c-0.6-0.4-0.9-1-0.9-1.8c0-2,0.5-3.5,1.6-4.4
		c1.1-1,2.7-1.5,4.9-1.5h2.1l2.1,0.4l0-0.2l0,0.2c1.4,0.4,2.9,0.9,4.4,1.6l0.1-0.2h-0.2v2.1H281.7l-0.1-0.1L281.7,338.9z
		 M336.6,301.6l-0.2-0.1c-3.9,5.9-9.4,8.9-16.5,8.9c-7.3,0-13-3.9-17.3-11.7l-0.2,0.1l0.1,0.1l2.9-2.7l-0.1-0.1l-0.2,0.1
		c4,5.7,8.2,8.6,12.5,8.6c3.6,0,8-2.7,13.3-7.9l-0.1-0.1l-0.1,0.1l5.9,4.9L336.6,301.6l-0.2-0.1L336.6,301.6l0.1-0.1l-6-5.1
		l-0.1,0.1c-5.2,5.2-9.5,7.8-13,7.8c-4.1,0-8.1-2.8-12.1-8.4l-0.1-0.2l-3.1,3l0.1,0.1c4.3,7.9,10.2,11.9,17.6,11.9
		c7.2,0,12.9-3,16.8-9.1l0.1-0.1l-0.1-0.1L336.6,301.6z M375.3,321.4v-0.2h-13.2v15.2c0,2.7-0.4,4.8-1.2,6.2
		c-0.8,1.4-2.3,2.6-4.7,3.6l-0.3,0.1l14.4,12.9l-3.4,2.5l-22.5-20.4c-1.3-1.2-1.9-2.5-1.9-3.8c0-1.3,0.4-2.2,1-2.8
		c0.7-0.6,1.7-0.9,3.2-0.9c2.8,0,4.7,0.6,5.8,1.7l0.3,0.3v-14.6h-24v39.6l-9-4.8v-34.8h-7.4l-0.4-0.6l-0.3,0.1v0.5h-20.5l-0.2,13.2
		l0.3-0.2c2.2-1.3,4.3-2,6.4-2c3.1,0,5.8,1.2,8.3,3.6l0,0l0,0c2.5,2.3,3.8,5,3.8,8c0,4.4-1.5,8-4.6,10.8l0.1,0.1l0.1-0.2l-7.1-3.1
		l-0.1,0.2l0.1,0.1c0.5-0.6,1-1.3,1.6-2.1c1-1.3,1.7-2.3,2.2-3l0,0l1.3-2.7l0,0c0.5-1,0.7-2.1,0.9-3.1l0,0v0c0-1.2-0.3-2.1-0.9-2.7
		c-0.6-0.6-1.5-0.9-2.6-0.9c-3,0-6.3,1.5-9.8,4.5l-0.1,0.1v18.9l-9.3-2.7v-13.6l-0.3,0.2c-3.4,2.1-6.9,3.2-10.5,3.2
		c-2.7,0-5.3-0.8-7.9-2.4c-2.6-1.6-3.8-3.8-3.8-6.6c0-2.8,1.3-5.1,3.9-7.2l-0.1-0.2l0.1,0.2c2.3-1.7,5-2.5,8.2-2.5
		c4.2,0,7.7,1.6,10.4,4.9l0.3-0.1l0.1-12.7h-31.8v39.6l-9-4.8v-34.8h-39.2v39.6l-9-4.8l0-34.8h-7.4l-0.4-0.6l-0.3,0.1v0.5h-20.5
		l-0.2,13.2l0.3-0.2c2.2-1.3,4.3-2,6.4-2c3.1,0,5.8,1.2,8.3,3.6l0,0l0,0c2.5,2.3,3.8,5,3.8,8c0,4.4-1.5,8-4.6,10.8l0.1,0.1l0.1-0.2
		l-7.1-3.1l-0.1,0.2l0.1,0.1c0.5-0.6,1-1.3,1.6-2.1l0,0l0,0c1-1.3,1.7-2.3,2.2-3l0,0l1.3-2.7l0,0c0.5-1,0.8-2.1,0.9-3.1l0,0v0
		c0-1.2-0.3-2.1-0.9-2.7c-0.6-0.6-1.5-0.9-2.6-0.9c-3,0-6.3,1.5-9.8,4.5l-0.1,0.1v18.9l-9.3-2.7l0-13.6l-0.3,0.2
		c-3.4,2.1-6.9,3.2-10.5,3.2c-2.7,0-5.3-0.8-7.9-2.4c-2.6-1.6-3.8-3.8-3.8-6.6c0-2.8,1.3-5.1,3.9-7.2l-0.1-0.2l0.1,0.2
		c2.3-1.7,5-2.5,8.1-2.5c4.2,0,7.7,1.6,10.4,4.9l0.3-0.1l0.1-12.7h-23.6l-4.5-6.6h242.7l4.6,6.9L375.3,321.4v-0.2V321.4l0.2-0.1
		l-4.7-7H127.1l5,7.3h23.4l-0.1,12.3l0.2,0l0.1-0.1c-2.8-3.3-6.4-5-10.7-5c-3.2,0-6,0.9-8.4,2.6l0,0l0,0c-2.7,2.1-4.1,4.6-4.1,7.5
		c0,2.9,1.3,5.3,4,6.9c2.6,1.6,5.3,2.5,8.1,2.5c3.7,0,7.3-1.1,10.7-3.3l-0.1-0.2H155v13.5l10,3v-19.3h-0.2l0.1,0.1
		c3.5-3,6.7-4.4,9.5-4.4c1.1,0,1.8,0.3,2.4,0.8c0.5,0.5,0.8,1.3,0.8,2.4h0.2l-0.2,0c-0.1,1-0.4,1.9-0.8,3l0.2,0.1l-0.2-0.1l-1.3,2.7
		l0.2,0.1l-0.2-0.1c-0.5,0.7-1.2,1.7-2.2,3l0.2,0.1l-0.2-0.1c-0.6,0.8-1.2,1.5-1.6,2.1l-0.2,0.2l7.5,3.2l0.1-0.1
		c3.1-2.8,4.7-6.5,4.7-11c0-3.2-1.3-6-3.9-8.3l-0.1,0.1l0.1-0.1c-2.5-2.4-5.4-3.7-8.6-3.7c-2.2,0-4.4,0.7-6.6,2l0.1,0.2l0.2,0
		l0.2-12.5l20.5,0v-0.2l0.1,0.2l0.1,0.1h7.2v34.6l9.7,5.2v-39.8h38.4l0,34.6l9.7,5.2v-39.8H282l-0.1,12.3l0.2,0l0.1-0.1
		c-2.8-3.3-6.4-5-10.7-5c-3.2,0-6,0.9-8.4,2.6l0,0l0,0c-2.7,2.1-4.1,4.6-4.1,7.5c0,2.9,1.3,5.3,4,6.9c2.6,1.6,5.3,2.5,8.1,2.5
		c3.7,0,7.3-1.1,10.7-3.3l-0.1-0.2h-0.2v13.5l10,3v-19.3h-0.2l0.1,0.1c3.5-3,6.7-4.4,9.5-4.4c1.1,0,1.8,0.3,2.4,0.8
		c0.5,0.5,0.8,1.3,0.8,2.4h0.2l-0.2,0c-0.1,1-0.4,2-0.8,3l0.2,0.1l-0.2-0.1l-1.3,2.7l0.2,0.1l-0.2-0.1c-0.5,0.7-1.2,1.7-2.2,3
		c-0.6,0.8-1.2,1.5-1.6,2.1l-0.2,0.2l7.5,3.2l0.1-0.1c3.1-2.8,4.7-6.5,4.7-11c0-3.2-1.3-6-3.9-8.3l-0.1,0.1l0.1-0.1
		c-2.5-2.4-5.4-3.7-8.6-3.7c-2.2,0-4.4,0.7-6.6,2l0.1,0.2l0.2,0l0.2-12.5h20.5v-0.3l0.1,0.2l0.1,0.1h7.2v34.6l9.7,5.2v-39.8h23.2
		v13.7h0.2l0.1-0.1c-1.2-1.2-3.3-1.8-6.1-1.8c-1.5,0-2.6,0.3-3.4,1c-0.8,0.7-1.2,1.7-1.2,3c0,1.5,0.7,2.8,2.1,4.1l22.8,20.7l4-2.9
		l-14.5-13l-0.1,0.1l0.1,0.2c2.4-1,4.1-2.3,4.9-3.8c0.8-1.5,1.2-3.6,1.2-6.4v-14.8l13.1,0l-0.2-0.3L375.3,321.4z M241.4,341.3v-0.2
		h-15.8v4.1c0,0.8-0.2,1.4-0.7,1.8c-0.4,0.4-1.1,0.6-2,0.6c-0.5,0-1.1-0.2-1.8-0.7l-0.1,0.2l0.1-0.1l-8.3-7.8l0,0
		c-0.7-0.6-1-1.3-1-2.1c0-0.9,0.4-1.6,1.1-2c0.7-0.5,1.9-0.7,3.4-0.7h24.9v6.9H241.4v-0.2V341.3h0.2V334h-25.3
		c-1.6,0-2.8,0.2-3.6,0.8c-0.8,0.5-1.3,1.3-1.3,2.4c0,0.9,0.4,1.7,1.2,2.4l0.1-0.1l-0.1,0.1l8.4,7.8l0,0c0.7,0.5,1.4,0.7,2,0.7
		c1,0,1.7-0.2,2.3-0.7c0.5-0.5,0.8-1.2,0.8-2.1v-3.7h15.6v-0.2H241.4z"/>
	<path id="XMLID_29_" class="st2" d="M111.9,91.4h115.4c0,4-1.7,6.7-3.3,10.4c-129.9-1.3-127.8,178.1-1,172.7c0.4,0,0.7,0,1.1-0.1
		c1.6,3.6,3.2,6.3,3.2,10.2H111.9V91.4"/>
	<g id="XMLID_32_">
		<defs>
			<polyline id="XMLID_31_" points="389.5,91.4 240.8,91.4 154.8,188 240.8,284.6 389.5,284.6 389.5,91.4 			"/>
		</defs>
		<clipPath id="XMLID_65_">
			<use xlink:href="#XMLID_31_"  style="overflow:visible;"/>
		</clipPath>
		<polyline id="XMLID_33_" class="st3" points="137.2,119.5 390.7,119.5 390.1,130 287.1,130 280.8,137.4 241.5,137.4 232.9,144.7 
			136.6,144.7 137.2,119.5 		"/>
	</g>
	<g id="XMLID_35_">
		<defs>
			<polyline id="XMLID_34_" points="389.5,91.4 240.8,91.4 154.8,188 240.8,284.6 389.5,284.6 389.5,91.4 			"/>
		</defs>
		<clipPath id="XMLID_66_">
			<use xlink:href="#XMLID_34_"  style="overflow:visible;"/>
		</clipPath>
		<polyline id="XMLID_36_" class="st4" points="135.2,148.3 390.7,148.3 390.1,159.1 267.1,159.1 260.8,166.8 221.5,166.8 
			212.9,174.5 134.6,174.5 135.2,148.3 		"/>
	</g>
	<g id="XMLID_38_">
		<defs>
			<polyline id="XMLID_37_" points="389.5,91.4 240.8,91.4 154.8,188 240.8,284.6 389.5,284.6 389.5,91.4 			"/>
		</defs>
		<clipPath id="XMLID_70_">
			<use xlink:href="#XMLID_37_"  style="overflow:visible;"/>
		</clipPath>
		<polyline id="XMLID_39_" class="st5" points="135.2,181.3 390.7,181.3 390.1,192.7 259.1,192.7 264.8,200.8 213.5,200.8 
			219.9,208.8 134.6,208.8 135.2,181.3 		"/>
	</g>
	<g id="XMLID_41_">
		<defs>
			<polyline id="XMLID_40_" points="389.5,91.4 240.8,91.4 154.8,188 240.8,284.6 389.5,284.6 389.5,91.4 			"/>
		</defs>
		<clipPath id="XMLID_71_">
			<use xlink:href="#XMLID_40_"  style="overflow:visible;"/>
		</clipPath>
		<polyline id="XMLID_42_" class="st6" points="135.2,274.5 390.7,274.5 390.1,300.7 134.6,300.7 135.2,274.5 		"/>
	</g>
	<g id="XMLID_44_">
		<defs>
			<polyline id="XMLID_43_" points="389.5,91.4 240.8,91.4 154.8,188 240.8,284.6 389.5,284.6 389.5,91.4 			"/>
		</defs>
		<clipPath id="XMLID_72_">
			<use xlink:href="#XMLID_43_"  style="overflow:visible;"/>
		</clipPath>
		<polyline id="XMLID_45_" class="st7" points="135.2,212.4 390.7,212.4 390.1,223.8 279.1,223.8 284.8,231.8 233.5,231.8 
			239.9,239.9 134.6,239.9 135.2,212.4 		"/>
	</g>
	<g id="XMLID_47_">
		<defs>
			<polyline id="XMLID_46_" points="389.5,91.4 240.8,91.4 154.8,188 240.8,284.6 389.5,284.6 389.5,91.4 			"/>
		</defs>
		<clipPath id="XMLID_73_">
			<use xlink:href="#XMLID_46_"  style="overflow:visible;"/>
		</clipPath>
		<polyline id="XMLID_48_" class="st8" points="135.2,243.4 390.7,243.4 390.1,254.9 299.1,254.9 304.8,262.9 253.5,262.9 
			259.9,271 134.6,271 135.2,243.4 		"/>
	</g>
	<g id="XMLID_50_">
		<defs>
			<polyline id="XMLID_49_" points="389.5,91.4 240.8,91.4 154.8,188 240.8,284.6 389.5,284.6 389.5,91.4 			"/>
		</defs>
		<clipPath id="XMLID_74_">
			<use xlink:href="#XMLID_49_"  style="overflow:visible;"/>
		</clipPath>
		<polyline id="XMLID_51_" class="st9" points="139.2,90.7 390.7,90.7 390.1,101.2 307.1,101.2 300.8,108.6 261.5,108.6 252.9,116 
			138.6,116 139.2,90.7 		"/>
	</g>
</g>
</svg>
