<svg xmlns="http://www.w3.org/2000/svg" viewBox="0 0 135 31">
    <g stroke="none" stroke-width="1" fill="none" fill-rule="evenodd">
        <g>
            <polyline fill="#0A0B09" points="41.18 21.67 41.18 8.47 44.69 8.47 49.14 18.33 53.53 8.47 56.89 8.47 56.89 21.67 53.99 21.67 53.99 13.99 50.65 21.67 47.57 21.67 44.18 14.03 44.18 21.67 41.18 21.67"/>
            <path d="M68.54,16.56 L66.12,10.96 L63.75,16.56 L68.54,16.56 Z M61.59,21.67 L58.18,21.67 L64.04,8.47 L68.23,8.47 L74.12,21.67 L70.76,21.67 L69.6,19.04 L62.71,19.04 L61.59,21.67 Z" fill="#0A0B09"/>
            <polyline fill="#0A0B09" points="75.48 21.67 75.48 8.47 88.08 8.47 88.08 11.11 78.53 11.11 78.53 13.73 86.72 13.73 86.72 16.3 78.53 16.3 78.53 19.03 88.11 19.03 88.11 21.67 75.48 21.67"/>
            <path d="M93.64,14.53 L100.27,14.53 L100.27,11.11 L93.64,11.11 L93.64,14.53 Z M90.56,21.67 L90.56,8.47 L101.1,8.47 C102.51,8.47 103.33,9.28 103.33,10.68 L103.33,15.12 C103.33,16.14 102.43,17.06 100.67,17.06 C100.58,17.06 100.47,17.06 100.37,17.06 L103.44,21.67 L100.05,21.67 L97.14,17.15 L93.64,17.15 L93.64,21.67 L90.56,21.67 Z" fill="#0A0B09"/>
            <path d="M108.88,21.67 L107.84,21.67 C106.47,21.67 105.82,20.89 105.82,19.74 L105.82,18.01 L108.88,18.01 L108.88,19.04 L115.4,19.04 L115.4,16.33 C115.4,16.33 109.12,16.33 107.92,16.33 C106.73,16.33 105.87,15.53 105.87,14.42 L105.87,10.5 C105.87,9.31 106.81,8.48 107.94,8.48 C109.08,8.48 116.49,8.48 116.49,8.48 C117.64,8.48 118.44,9.34 118.44,10.58 C118.44,11.83 118.44,12.16 118.44,12.16 L115.4,12.16 L115.4,11.12 L108.88,11.12 L108.88,13.72 L116.33,13.72 C117.43,13.72 118.44,14.44 118.44,15.84 L118.44,19.61 C118.44,20.89 117.73,21.67 116.4,21.67 C115.06,21.67 108.88,21.67 108.88,21.67" fill="#0A0B09"/>
            <polyline fill="#0A0B09" points="121.38 21.67 121.38 8.48 124.51 8.48 124.51 13.75 130.47 8.48 134.71 8.48 127.6 14.61 134.96 21.67 130.58 21.67 124.51 15.67 124.51 21.67 121.38 21.67"/>
            <path d="M28.55,26.63 C28.55,28.52 27.03,30.05 25.14,30.05 L3.58,30.05 C1.69,30.05 0.16,28.52 0.16,26.63 L0.16,3.5 C0.16,1.62 1.69,0.09 3.58,0.09 L25.14,0.09 C27.03,0.09 28.55,1.62 28.55,3.5 L28.55,26.63" fill="#42B0D5"/>
            <polyline fill="#FFFFFE" points="18.89 14.29 24.49 7.26 24.47 7.24 16.37 11.14 14.37 2.38 14.35 2.38 12.35 11.14 4.25 7.24 4.23 7.26 9.83 14.29 1.74 18.19 1.75 18.22 10.73 18.22 8.73 26.98 8.76 26.99 14.36 19.96 19.96 26.99 19.99 26.98 17.99 18.22 26.98 18.22 26.98 18.19 18.89 14.29"/>
        </g>
    </g>
</svg>
