<svg xmlns="http://www.w3.org/2000/svg" width="441.19" height="440.59" viewBox="0 0 441.19 440.59"><title>Icon-07-global</title><path d="M52.56,240.5l62.18.19a5,5,0,0,0,0-10L52.6,230.5,78,205.59a5,5,0,1,0-7-7.14l-34.1,33.46A5,5,0,0,0,36.1,238c.64,1.1-.65-.45,34.67,34.69a5,5,0,0,0,7-7.1Z" transform="translate(-35.4 -35.7)" fill="#1b43fe"/><path d="M367.1,78.34,340.05,35.7H279.38l7,42.64Z" transform="translate(-35.4 -35.7)" fill="#1b43fe"/><path d="M269.25,35.71h-26.5l-7,42.63h40.42Z" transform="translate(-35.4 -35.7)" fill="#1b43fe"/><path d="M232.61,35.71H172l-27,42.63h80.76Z" transform="translate(-35.4 -35.7)" fill="#1b43fe"/><path d="M371.19,88.34H287.05v39.75a5,5,0,0,1-5,5H230a5,5,0,0,1-5-5V88.34H140.81V266.67H371.19ZM168.93,252a5,5,0,1,1-10,0V206.35a5,5,0,1,1,10,0Zm26.2,0a5,5,0,0,1-10,0V206.35a5,5,0,0,1,10,0Z" transform="translate(-35.4 -35.7)" fill="#1b43fe"/><path d="M235,88.34h42.1v34.75H235Z" transform="translate(-35.4 -35.7)" fill="#1b43fe"/><path d="M155.63,328.7,93.37,390.59,93.71,355a5,5,0,0,0-10-.1c0,.11-.46,47.88-.46,47.77a5,5,0,0,0,5,5l47.78-.17a5,5,0,0,0,0-10l-35.6.13,62.27-61.9a5,5,0,1,0-7.05-7.09Z" transform="translate(-35.4 -35.7)" fill="#1b43fe"/><path d="M286.33,433.87l-25.08,25.27.2-116.1a5,5,0,0,0-5-5h0a5,5,0,0,0-5,5l-.2,116.06-24.9-25.38a5,5,0,0,0-7.14,7c.12.11,33.58,34.22,33.46,34.1a5,5,0,0,0,7.09,0c.56-.55,33.57-33.81,33.67-33.91a5,5,0,0,0-7.1-7.05Z" transform="translate(-35.4 -35.7)" fill="#1b43fe"/><path d="M428.32,353.21a5,5,0,0,0-5-5h0a5,5,0,0,0-5,5l.13,35.47-61.78-62.15a5,5,0,0,0-7.09,7.05l61.89,62.26-35.69-.34a5,5,0,0,0-.09,10l47.85.45a5,5,0,0,0,4.95-6Z" transform="translate(-35.4 -35.7)" fill="#1b43fe"/><path d="M475.14,229.48c-.56-.57-33.81-33.57-33.91-33.67a5,5,0,0,0-7,7.1L459.44,228l-62.18-.19a5,5,0,0,0,0,10l62.16.19L434,262.89a5,5,0,0,0,7,7.14c.11-.12,34.22-33.58,34.1-33.46a5,5,0,0,0,0-7.09Z" transform="translate(-35.4 -35.7)" fill="#1b43fe"/></svg>