<svg xmlns="http://www.w3.org/2000/svg" width="437.89" height="376.07" viewBox="0 0 437.89 376.07"><title>Icon-03-global</title><path d="M125.13,401.48a4.12,4.12,0,1,0,4.11,4.11A4.12,4.12,0,0,0,125.13,401.48Z" transform="translate(-37.06 -67.97)" fill="#1b43fe"/><path d="M318.13,68H37.06V302H318.13ZM177.59,279.48A94.52,94.52,0,1,1,272.11,185,94.62,94.62,0,0,1,177.59,279.48Z" transform="translate(-37.06 -67.97)" fill="#1b43fe"/><path d="M125.13,367.16a38.44,38.44,0,1,0,38.43,38.44A38.48,38.48,0,0,0,125.13,367.16Zm0,52.55a14.12,14.12,0,1,1,14.11-14.12A14.13,14.13,0,0,1,125.13,419.71Z" transform="translate(-37.06 -67.97)" fill="#1b43fe"/><path d="M377.75,367.16a38.44,38.44,0,1,0,38.44,38.44A38.48,38.48,0,0,0,377.75,367.16Zm0,52.55a14.12,14.12,0,1,1,14.11-14.12A14.14,14.14,0,0,1,377.76,419.71Z" transform="translate(-37.06 -67.97)" fill="#1b43fe"/><path d="M377.76,401.48a4.12,4.12,0,1,0,4.11,4.11A4.12,4.12,0,0,0,377.76,401.48Z" transform="translate(-37.06 -67.97)" fill="#1b43fe"/><path d="M351.87,298.23v-100H328.13V307a5,5,0,0,1-5,5H37.06V374.2l16.48,16.48H79.05a48.43,48.43,0,0,1,92.15,0H331.68a48.43,48.43,0,0,1,94.25,9.92h33l16-15.12V303.23H356.87a5,5,0,0,1-5-5Z" transform="translate(-37.06 -67.97)" fill="#1b43fe"/><path d="M177.59,100.45A84.52,84.52,0,1,0,262.11,185,84.61,84.61,0,0,0,177.59,100.45Zm45.22,56.22-56.75,56.75a5,5,0,0,1-7.07,0l-32.25-32.25a5,5,0,0,1,7.07-7.07l28.72,28.71,53.21-53.21a5,5,0,0,1,7.07,7.07Z" transform="translate(-37.06 -67.97)" fill="#1b43fe"/><path d="M361.87,198.27v95H474.94V270.07l-61.27-71.8Z" transform="translate(-37.06 -67.97)" fill="#1b43fe"/></svg>