<svg xmlns="http://www.w3.org/2000/svg" width="479.09" height="470.8" viewBox="0 0 479.09 470.8"><title>Icon-06-global</title><path d="M490.06,480.43h-20.6V188.06L256,77.9,42.53,188.13v292.3H21.94a5.49,5.49,0,0,0,0,11H490.06a5.49,5.49,0,0,0,0-11Zm-74.43,0H390.82a6.77,6.77,0,0,0,.38-1.85V417.73a7.32,7.32,0,0,0-7.32-7.32H358.94v15.87a5.49,5.49,0,1,1-11,0V410.41H323a7.32,7.32,0,0,0-7.32,7.32v60.85a7.16,7.16,0,0,0,.38,1.85H304.37a7.15,7.15,0,0,0,.37-1.85V417.73a7.31,7.31,0,0,0-7.31-7.32H272.49v15.87a5.49,5.49,0,0,1-11,0V410.41h-25a7.31,7.31,0,0,0-7.31,7.32v60.85a7.15,7.15,0,0,0,.37,1.85H217.84a7.15,7.15,0,0,0,.37-1.85V417.73a7.31,7.31,0,0,0-7.31-7.32H186v15.87a5.49,5.49,0,1,1-11,0V410.41H150.05a7.32,7.32,0,0,0-7.32,7.32v60.85a7.15,7.15,0,0,0,.37,1.85H96.36V191.86H415.63Z" transform="translate(-16.46 -20.6)" fill="#1b43fe"/><path d="M26.21,184.13,254.66,66.22a3,3,0,0,1,2.69,0L485.79,184.13a2.93,2.93,0,0,0,4.27-2.6V142.82a2.93,2.93,0,0,0-1.59-2.6L257.34,20.93a2.91,2.91,0,0,0-2.69,0L23.52,140.22a2.93,2.93,0,0,0-1.58,2.59v38.72a2.93,2.93,0,0,0,4.27,2.6Z" transform="translate(-16.46 -20.6)" fill="#1b43fe"/><path d="M107.33,202.83H404.66V227H107.33Z" transform="translate(-16.46 -20.6)" fill="#1b43fe"/><path d="M107.33,238H404.66V262.3H107.33Z" transform="translate(-16.46 -20.6)" fill="#1b43fe"/><path d="M107.33,273.27H404.66v24.28H107.33Z" transform="translate(-16.46 -20.6)" fill="#1b43fe"/><path d="M210.9,324H186v15.87a5.49,5.49,0,0,1-11,0V324H150.05a7.31,7.31,0,0,0-7.32,7.31v60.86a7.32,7.32,0,0,0,7.32,7.31H210.9a7.31,7.31,0,0,0,7.31-7.31V331.27A7.31,7.31,0,0,0,210.9,324Z" transform="translate(-16.46 -20.6)" fill="#1b43fe"/><path d="M297.43,324H272.49v15.87a5.49,5.49,0,0,1-11,0V324h-25a7.31,7.31,0,0,0-7.31,7.31v60.86a7.31,7.31,0,0,0,7.31,7.31h60.93a7.31,7.31,0,0,0,7.31-7.31V331.27A7.31,7.31,0,0,0,297.43,324Z" transform="translate(-16.46 -20.6)" fill="#1b43fe"/></svg>