<svg xmlns="http://www.w3.org/2000/svg" width="461.33" height="461.33" viewBox="0 0 461.33 461.33"><title>Icon-01-global</title><path d="M238.24,198.57h35.52v29.1H238.24Z" transform="translate(-25.33 -25.33)" fill="#1b43fe"/><path d="M234.82,152.59h-51.9l-22.83,36H229Z" transform="translate(-25.33 -25.33)" fill="#1b43fe"/><path d="M267,152.59H245l-5.87,36h33.82Z" transform="translate(-25.33 -25.33)" fill="#1b43fe"/><path d="M351.91,188.57l-22.83-36H277.17l5.88,36Z" transform="translate(-25.33 -25.33)" fill="#1b43fe"/><path d="M156,326.57H356v26.55H156Z" transform="translate(-25.33 -25.33)" fill="#1b43fe"/><path d="M283.76,232.67a5,5,0,0,1-5,5H233.24a5,5,0,0,1-5-5v-34.1H156v118H356v-118H283.76Z" transform="translate(-25.33 -25.33)" fill="#1b43fe"/><path d="M261,74.76V30.33a5,5,0,1,0-10,0V74.76C254.51,74.67,257.49,74.67,261,74.76Z" transform="translate(-25.33 -25.33)" fill="#1b43fe"/><path d="M74.76,251H30.33a5,5,0,1,0,0,10H74.76C74.67,257.49,74.67,254.51,74.76,251Z" transform="translate(-25.33 -25.33)" fill="#1b43fe"/><path d="M251,437.23v44.44a5,5,0,1,0,10,0V437.23c-1.66,0-3.33.08-5,.08S252.66,437.28,251,437.23Z" transform="translate(-25.33 -25.33)" fill="#1b43fe"/><path d="M481.67,251H437.24c.09,3.51.09,6.49,0,10h44.43a5,5,0,1,0,0-10Z" transform="translate(-25.33 -25.33)" fill="#1b43fe"/><path d="M400.27,256a5,5,0,0,1,5-5h32C434.62,155,357,77.38,261,74.76v32a5,5,0,1,1-10,0v-32C155,77.38,77.38,155,74.76,251h32a5,5,0,1,1,0,10h-32C77.38,357,155,434.62,251,437.23v-32a5,5,0,0,1,10,0v32C357,434.62,434.62,357,437.23,261h-32a5,5,0,0,1-5-5ZM366,358.12a5,5,0,0,1-5,5H151a5,5,0,0,1-5-5c0-176.8-.08-164.76.14-165.69a5.7,5.7,0,0,1,.28-.86c.32-.73-1.5,2.3,29.53-46.66a5,5,0,0,1,4.22-2.32H331.83a5,5,0,0,1,4.22,2.32c31.12,49.09,29.21,45.93,29.53,46.66a5.29,5.29,0,0,1,.43,2Z" transform="translate(-25.33 -25.33)" fill="#1b43fe"/></svg>